<svg xmlns="http://www.w3.org/2000/svg" width="158" height="44" viewBox="0 0 158 44" fill="none"><path fill-rule="evenodd" clip-rule="evenodd" d="M21.7078 17.2425C21.7078 15.1353 21.0053 13.4043 19.5922 12.0497C18.3211 10.787 15.9798 9.81705 12.5681 9.13973C11.6232 8.97249 10.7953 8.78852 10.1013 8.58784C9.39889 8.38715 8.81355 8.20318 8.32855 8.03594C7.80175 7.84362 7.54252 7.5844 7.54252 7.24155C7.54252 6.88199 7.80175 6.63113 8.32019 6.48061C8.83863 6.3301 9.57449 6.25484 10.5194 6.25484C11.7653 6.25484 13.1702 6.48061 14.7338 6.9238C15.5115 7.15793 16.2641 7.40879 16.9832 7.68474C17.7024 7.96069 18.388 8.25336 19.0403 8.57111C19.3998 8.76344 19.726 8.74671 20.027 8.52094C20.3197 8.29517 20.4451 7.98577 20.4033 7.5844L19.7678 2.04875C19.751 1.88151 19.6674 1.71427 19.5336 1.53867C19.3998 1.37143 19.241 1.26272 19.0737 1.22091C18.6723 1.09548 18.1706 0.970053 17.5686 0.844623C16.9665 0.719193 16.2641 0.577039 15.4697 0.434885C13.7973 0.142215 12.2252 -0.00830078 10.7535 -0.00830078C7.3502 6.12196e-05 4.71617 0.685745 2.83472 2.05711C0.953268 3.42848 0 5.44372 0 8.10284C0 10.3857 0.769304 12.15 2.30791 13.4211C3.72109 14.6001 6.25478 15.5617 9.90061 16.2976C11.8406 16.6823 13.0865 17.0418 13.6384 17.3763C13.9729 17.6104 14.1485 17.8362 14.1485 18.0703C14.1485 18.5135 13.8558 18.848 13.2789 19.0821C12.7019 19.3163 11.9326 19.4334 10.9877 19.4334C9.44906 19.4334 7.72649 19.1156 5.82831 18.4801C3.99704 17.8278 2.55877 17.2425 1.52188 16.7408C1.16232 16.5735 0.8362 16.5903 0.54353 16.791C0.242498 16.9916 0.12543 17.2927 0.16724 17.6941L0.677322 23.7063C0.694046 23.8987 0.777666 24.0743 0.928182 24.2415C1.0787 24.4087 1.24594 24.5174 1.43826 24.5593C1.6724 24.6011 2.00688 24.668 2.43334 24.7683C2.86817 24.8603 3.38661 24.9606 4.0054 25.0693V25.0359C4.17264 25.0777 4.33988 25.1111 4.49876 25.1279C4.65763 25.153 4.8416 25.1864 5.05065 25.2199C5.96211 25.3704 6.87356 25.4791 7.78502 25.5543C8.70484 25.6296 9.62466 25.663 10.5528 25.663C12.2838 25.663 13.8391 25.4791 15.2188 25.1111C16.5986 24.7432 17.7693 24.2081 18.7309 23.4973C19.6925 22.7949 20.4284 21.9169 20.9468 20.8716C21.4653 19.8264 21.7245 18.6222 21.7245 17.2509L21.7078 17.2425ZM30.9143 25.2784C31.1652 25.2784 31.3909 25.1864 31.5749 24.9941C31.7672 24.8018 31.8592 24.5843 31.8592 24.3251V15.6872L41.4421 25.0192C41.5006 25.061 41.6177 25.1111 41.7766 25.178C41.9354 25.2366 42.0525 25.27 42.1361 25.27H50.6486C50.8828 25.27 51.0751 25.2199 51.234 25.1111C51.3929 25.0108 51.5099 24.8687 51.5852 24.7014C51.6604 24.5342 51.6772 24.3586 51.6354 24.1662C51.5935 23.9739 51.4848 23.7983 51.3176 23.6227L39.268 11.849L48.1568 2.07384C48.3073 1.92332 48.3909 1.75608 48.4076 1.56376C48.4327 1.37143 48.4076 1.19583 48.3324 1.02859C48.2571 0.861347 48.1317 0.719193 47.9728 0.618849C47.8056 0.518505 47.6132 0.459971 47.4042 0.459971H40.0623C39.9787 0.459971 39.8533 0.493419 39.6777 0.568677C39.5105 0.643935 39.3934 0.710831 39.3349 0.777727L31.8676 9.29024V1.4216C31.8676 1.17074 31.7756 0.944967 31.5833 0.761003C31.391 0.568677 31.1735 0.476695 30.9227 0.476695H24.0575C23.7983 0.476695 23.5808 0.568677 23.3885 0.761003C23.1962 0.953329 23.1042 1.17074 23.1042 1.4216V24.3335C23.1042 24.5843 23.1962 24.8101 23.3885 25.0024C23.5808 25.1948 23.7983 25.2868 24.0575 25.2868H30.9227L30.9143 25.2784ZM73.5689 0.476695C73.5271 0.476695 73.4685 0.476695 73.41 0.501781L78.0426 6.27992L69.7224 5.00054L69.3377 5.51062L66.4361 12.9779L63.3171 4.97545L54.8296 6.27992L59.4873 0.476695H51.5434C51.1002 0.476695 50.7908 0.652297 50.6152 1.01186C50.4396 1.37143 50.4898 1.72263 50.7908 2.05711L61.837 15.3443V24.3335C61.837 24.5843 61.929 24.8101 62.1213 25.0024C62.3136 25.1948 62.531 25.2868 62.7819 25.2868H69.8729C70.1488 25.2868 70.3746 25.1948 70.5753 25.0024C70.7676 24.8101 70.8596 24.5927 70.8596 24.3335V15.3443L81.8724 2.05711C82.1483 1.72263 82.1985 1.37143 82.0145 1.01186C81.8389 0.652297 81.5211 0.476695 81.078 0.476695H73.5772H73.5689ZM97.6514 8.16974C96.7483 6.96561 95.8536 5.76984 94.984 4.57408C94.1059 3.37831 93.2112 2.1491 92.2747 0.886433C92.2329 0.777727 92.1242 0.685745 91.9486 0.602125C91.7646 0.518505 91.6141 0.476695 91.4887 0.476695H84.4646C84.2137 0.476695 83.9879 0.568677 83.7956 0.761003C83.6033 0.953329 83.5113 1.17074 83.5113 1.4216V24.3335C83.5113 24.5843 83.6033 24.8101 83.7956 25.0024C83.9879 25.1948 84.2053 25.2868 84.4646 25.2868H90.6357C90.9117 25.2868 91.1374 25.1948 91.3298 25.0024C91.5221 24.8101 91.6141 24.5927 91.6141 24.3335V12.8775L100.536 24.9021C100.62 25.0024 100.745 25.0944 100.913 25.1697C101.08 25.2449 101.222 25.2784 101.322 25.2784H108.413C108.689 25.2784 108.915 25.1864 109.107 24.9941C109.3 24.8018 109.392 24.5843 109.392 24.3251V1.4216C109.392 1.17074 109.3 0.944967 109.107 0.761003C108.915 0.568677 108.689 0.476695 108.413 0.476695H102.242C101.966 0.476695 101.732 0.568677 101.548 0.761003C101.356 0.953329 101.264 1.17074 101.264 1.4216V13.0699C100.645 12.2253 100.051 11.3975 99.4576 10.5864C98.8723 9.77524 98.2702 8.96413 97.6514 8.16974ZM131.61 25.2868C131.885 25.2868 132.111 25.1948 132.295 25.0024C132.471 24.8101 132.563 24.5927 132.563 24.3335V19.7177C132.563 19.4417 132.471 19.2076 132.295 19.0236C132.111 18.8313 131.885 18.7393 131.61 18.7393H120.12V16.0886L129.201 16.0551C129.452 16.0551 129.678 15.9631 129.862 15.7708C130.054 15.5785 130.146 15.3527 130.146 15.0767V10.5195C130.146 10.2686 130.054 10.0428 129.862 9.8505C129.67 9.65817 129.452 9.56619 129.201 9.56619H120.12V7.0325H130.757C131.007 7.0325 131.233 6.94052 131.417 6.7482C131.61 6.55587 131.702 6.3301 131.702 6.05415V1.4216C131.702 1.17074 131.61 0.944967 131.417 0.761003C131.225 0.577039 131.007 0.476695 130.757 0.476695H112.31C112.059 0.476695 111.833 0.568677 111.641 0.761003C111.449 0.953329 111.357 1.17074 111.357 1.4216V24.3335C111.357 24.5843 111.449 24.8101 111.641 25.0024C111.833 25.1948 112.051 25.2868 112.31 25.2868H131.61ZM149.554 25.2868C149.83 25.2868 150.056 25.1948 150.232 25.0024C150.416 24.8101 150.508 24.5927 150.508 24.3335V6.70639H157.022C157.298 6.70639 157.523 6.6144 157.716 6.42208C157.908 6.22975 158 6.00398 158 5.72803V1.4216C158 1.17074 157.908 0.944967 157.716 0.761003C157.523 0.568677 157.289 0.476695 157.022 0.476695H135.13C134.854 0.476695 134.628 0.568677 134.444 0.761003C134.26 0.953329 134.177 1.17074 134.177 1.4216V5.72803C134.177 6.00398 134.269 6.22975 134.444 6.42208C134.62 6.6144 134.854 6.70639 135.13 6.70639H141.677V24.3335C141.677 24.5843 141.769 24.8101 141.962 25.0024C142.154 25.1948 142.371 25.2868 142.622 25.2868H149.554Z" fill="#0099D5"></path><path fill-rule="evenodd" clip-rule="evenodd" d="M157.055 42.8802C157.055 43.1561 157.189 43.2899 157.456 43.2899C157.724 43.2899 157.866 43.1561 157.866 42.8802V35.4714C157.866 35.1955 157.732 35.0617 157.456 35.0617C157.181 35.0617 157.055 35.1955 157.055 35.4714V42.8802ZM155.767 35.4714C155.767 35.1955 155.625 35.0617 155.349 35.0617C155.073 35.0617 154.939 35.1955 154.939 35.4714V41.6426C154.939 42.2697 154.563 42.6628 153.928 42.6628C153.635 42.6628 153.359 42.5708 153.117 42.4119C152.874 42.2447 152.715 42.161 152.657 42.161C152.406 42.161 152.28 42.3032 152.28 42.5791C152.28 42.6962 152.322 42.8133 152.414 42.8885C152.824 43.2565 153.334 43.4488 153.919 43.4488C155.006 43.4488 155.776 42.7547 155.776 41.651V35.4798L155.767 35.4714ZM150.056 41.7931C149.563 42.2865 148.936 42.5624 148.233 42.5624C146.302 42.5624 145.306 40.8064 145.306 39.0755C145.306 37.3445 146.276 35.6805 148.225 35.6805C148.91 35.6805 149.588 35.923 150.064 36.3996C150.14 36.4749 150.299 36.5334 150.407 36.5334C150.625 36.5334 150.809 36.3578 150.809 36.0902C150.809 35.9481 150.742 35.8143 150.6 35.6888C149.931 35.0701 149.136 34.7774 148.258 34.7774C145.708 34.7774 144.403 36.9682 144.403 39.1507C144.403 41.3332 145.658 43.4153 148.191 43.4153C149.103 43.4153 149.88 43.0892 150.566 42.4872C150.683 42.3784 150.733 42.2363 150.733 42.0774C150.733 41.8684 150.625 41.6677 150.332 41.6677C150.232 41.6677 150.14 41.7011 150.056 41.7847V41.7931ZM143.149 43.0223C143.216 43.1979 143.35 43.2899 143.55 43.2899C143.793 43.2899 143.927 43.131 143.927 42.9136C143.927 42.8467 143.918 42.7631 143.885 42.6795L141.284 35.5801C141.167 35.2457 140.942 35.0784 140.64 35.0784C140.339 35.0784 140.122 35.2457 139.997 35.5801L137.488 42.6795C137.471 42.7464 137.446 42.8216 137.446 42.9053C137.446 43.1059 137.547 43.2899 137.797 43.2899C138.032 43.2899 138.199 43.1477 138.299 42.8718L138.759 41.6091H142.572L143.149 43.0307V43.0223ZM140.649 36.2157L142.271 40.7646H138.985L140.649 36.2157ZM131.2 42.9387C131.2 43.1728 131.342 43.2983 131.626 43.2983C131.911 43.2983 132.028 43.1812 132.028 42.9387V40.5639L133.516 39.0002L136.033 43.1227C136.133 43.223 136.209 43.2983 136.409 43.2983C136.518 43.2983 136.819 43.1561 136.819 42.8885C136.819 42.7882 136.786 42.6544 136.685 42.5708L134.11 38.3898L136.501 35.7892C136.577 35.7223 136.61 35.6387 136.61 35.5383C136.61 35.3126 136.393 35.0951 136.15 35.0951C136.058 35.0951 135.966 35.1202 135.891 35.1955L132.019 39.4601V35.4129C132.019 35.1788 131.877 35.0701 131.601 35.0701C131.325 35.0701 131.2 35.1788 131.2 35.4129V42.9471V42.9387ZM129.084 42.8802C129.084 43.1561 129.218 43.2899 129.486 43.2899C129.753 43.2899 129.895 43.1561 129.895 42.8802V35.4714C129.895 35.1955 129.762 35.0617 129.486 35.0617C129.21 35.0617 129.084 35.1955 129.084 35.4714V42.8802ZM121.675 42.8718C121.675 43.1477 121.809 43.2899 122.085 43.2899C122.361 43.2899 122.487 43.1477 122.487 42.8718V36.6003L126.835 42.9554C126.994 43.1812 127.178 43.2899 127.387 43.2899C127.654 43.2899 127.788 43.1227 127.788 42.7965V35.4798C127.788 35.2038 127.654 35.0617 127.378 35.0617C127.102 35.0617 126.977 35.2038 126.977 35.4798V41.8266L122.645 35.4463C122.47 35.1955 122.278 35.0617 122.068 35.0617C121.801 35.0617 121.667 35.2289 121.667 35.5467V42.8718H121.675ZM114.108 40.1291C114.108 42.5708 115.504 43.4153 117.21 43.4153C118.916 43.4153 120.404 42.5791 120.404 40.1291V35.5383C120.404 35.2122 120.254 35.0617 119.953 35.0617C119.652 35.0617 119.501 35.2122 119.501 35.5383V40.0371C119.501 41.9938 118.556 42.5122 117.319 42.5122C116.081 42.5122 115.011 41.9603 115.011 40.0371V35.5383C115.011 35.2122 114.869 35.0617 114.568 35.0617C114.267 35.0617 114.116 35.2122 114.116 35.5383V40.1291H114.108ZM106.632 35.7808C106.482 35.2791 106.214 35.0366 105.855 35.0366C105.462 35.0366 105.236 35.3126 105.144 35.8728L104.048 42.7882C104.04 42.83 104.04 42.8802 104.04 42.922C104.04 43.1812 104.191 43.2983 104.433 43.2983C104.709 43.2983 104.834 43.1394 104.876 42.8467L105.896 36.0986L107.987 42.83C108.087 43.1394 108.246 43.2983 108.438 43.2983C108.631 43.2983 108.798 43.1394 108.89 42.8216L111.056 36.1069L111.992 42.8384C112.034 43.1477 112.168 43.2899 112.435 43.2899C112.67 43.2899 112.845 43.131 112.845 42.8885C112.845 42.8551 112.828 42.83 112.828 42.7965L111.8 35.8644C111.725 35.3209 111.491 35.0533 111.114 35.0533C110.738 35.0533 110.462 35.2958 110.312 35.7725L108.447 41.8266L106.624 35.7725L106.632 35.7808ZM99.2737 35.6387C101.097 35.6387 101.991 37.3947 101.991 39.1591C101.991 40.9235 101.113 42.6042 99.2904 42.6042C97.4675 42.6042 96.5978 40.8398 96.5978 39.0671C96.5978 37.2943 97.4758 35.6387 99.2737 35.6387ZM99.2737 34.8025C96.9156 34.8025 95.7449 36.9431 95.7449 39.0838C95.7449 41.2245 96.9323 43.3986 99.2737 43.3986C101.615 43.3986 102.861 41.2579 102.861 39.1173C102.861 36.9766 101.665 34.8025 99.2737 34.8025ZM89.9751 42.9387C89.9751 43.1728 90.1173 43.2983 90.3932 43.2983C90.6692 43.2983 90.7946 43.1812 90.7946 42.9387V40.5639L92.283 39.0002L94.8 43.1227C94.9003 43.223 94.9756 43.2983 95.1763 43.2983C95.285 43.2983 95.586 43.1561 95.586 42.8885C95.586 42.7882 95.5526 42.6544 95.4522 42.5708L92.8767 38.3898L95.2599 35.7892C95.3352 35.7223 95.3686 35.6387 95.3686 35.5383C95.3686 35.3126 95.1428 35.0951 94.9171 35.0951C94.8251 35.0951 94.7247 35.1202 94.6662 35.1955L90.7946 39.4601V35.4129C90.7946 35.1788 90.6524 35.0701 90.3765 35.0701C90.1006 35.0701 89.9751 35.1788 89.9751 35.4129V42.9471V42.9387ZM79.0376 35.7808C78.8955 35.2791 78.6195 35.0366 78.26 35.0366C77.8753 35.0366 77.6412 35.3126 77.5492 35.8728L76.4538 42.7882C76.437 42.83 76.437 42.8802 76.437 42.922C76.437 43.1812 76.5959 43.2983 76.8217 43.2983C77.0976 43.2983 77.2231 43.1394 77.2649 42.8467L78.285 36.0986L80.3755 42.83C80.4759 43.1394 80.6348 43.2983 80.8271 43.2983C81.0194 43.2983 81.1867 43.1394 81.287 42.8216L83.4528 36.1069L84.3977 42.8384C84.4395 43.1477 84.5733 43.2899 84.8409 43.2899C85.075 43.2899 85.2506 43.131 85.2506 42.8885C85.2506 42.8551 85.2422 42.83 85.2422 42.7965L84.2053 35.8644C84.1301 35.3209 83.8959 35.0533 83.5197 35.0533C83.1434 35.0533 82.8674 35.2958 82.7253 35.7725L80.8605 41.8266L79.0376 35.7725V35.7808ZM71.6791 35.6387C73.502 35.6387 74.3967 37.3947 74.3967 39.1591C74.3967 40.9235 73.5187 42.6042 71.7041 42.6042C69.8896 42.6042 69.0032 40.8398 69.0032 39.0671C69.0032 37.2943 69.8812 35.6387 71.6791 35.6387ZM71.6791 34.8025C69.3293 34.8025 68.1503 36.9431 68.1503 39.0838C68.1503 41.2245 69.3377 43.3986 71.6791 43.3986C74.0204 43.3986 75.258 41.2579 75.258 39.1173C75.258 36.9766 74.0622 34.8025 71.6791 34.8025ZM66.0347 42.8802C66.0347 43.1561 66.1685 43.2899 66.4361 43.2899C66.7037 43.2899 66.8458 43.1561 66.8458 42.8802V35.4714C66.8458 35.1955 66.712 35.0617 66.4361 35.0617C66.1601 35.0617 66.0347 35.1955 66.0347 35.4714V42.8802ZM59.4956 42.3952C59.4204 42.5122 59.3702 42.6628 59.3702 42.83C59.3702 43.1394 59.504 43.2983 59.7632 43.2983H64.6801C64.9644 43.2983 65.1149 43.1561 65.1149 42.8802C65.1149 42.6293 64.9727 42.4955 64.6801 42.4955H60.4322L64.747 35.9732C64.864 35.7808 64.9727 35.5801 64.9727 35.4296C64.9727 35.2289 64.8139 35.0784 64.4208 35.0784H59.9639C59.688 35.0784 59.5374 35.2122 59.5374 35.4882C59.5374 35.7641 59.688 35.8895 59.9639 35.8895H63.8271L59.5124 42.4119L59.4956 42.3952ZM55.4568 35.6387C57.2797 35.6387 58.1744 37.3947 58.1744 39.1591C58.1744 40.9235 57.2964 42.6042 55.4819 42.6042C53.6673 42.6042 52.7809 40.8398 52.7809 39.0671C52.7809 37.2943 53.659 35.6387 55.4568 35.6387ZM55.4568 34.8025C53.1071 34.8025 51.928 36.9431 51.928 39.0838C51.928 41.2245 53.1154 43.3986 55.4568 43.3986C57.7981 43.3986 59.0441 41.2579 59.0441 39.1173C59.0441 36.9766 57.8483 34.8025 55.4568 34.8025ZM47.8557 35.8644C49.0431 35.8644 49.8877 36.5 49.8877 37.5703C49.8877 38.6406 49.0515 39.2511 48.0313 39.2511H46.0161V35.8644H47.8557ZM45.205 42.8802C45.205 43.1561 45.3388 43.2899 45.6147 43.2899C45.8907 43.2899 46.0161 43.1561 46.0161 42.8802V40.0622H48.0815C49.5281 40.0622 50.7323 39.0002 50.7323 37.587C50.7323 36.0819 49.5365 35.0617 48.0146 35.0617H45.6649C45.3638 35.0617 45.205 35.2038 45.205 35.5049V42.8802ZM37.629 42.8133C37.629 43.131 37.7712 43.2899 38.0471 43.2899C38.323 43.2899 38.4568 43.131 38.4568 42.8133V39.4267L40.6895 35.647C40.7313 35.5718 40.7564 35.4882 40.7564 35.4129C40.7564 35.1788 40.6393 35.0617 40.3885 35.0617C40.2212 35.0617 40.0874 35.1537 39.9871 35.3126L38.0889 38.5319L36.1489 35.2875C36.0569 35.1286 35.9482 35.0533 35.8061 35.0533C35.5636 35.0533 35.4382 35.1871 35.4382 35.438C35.4382 35.5383 35.4632 35.6303 35.5134 35.7307L37.6206 39.4267V42.8133H37.629ZM28.9074 42.3952C28.8322 42.5122 28.7904 42.6628 28.7904 42.83C28.7904 43.1394 28.9242 43.2983 29.175 43.2983H34.0919C34.3762 43.2983 34.5267 43.1561 34.5267 42.8802C34.5267 42.6293 34.3845 42.4955 34.0919 42.4955H29.844L34.1588 35.9732C34.2758 35.7808 34.3845 35.5801 34.3845 35.4296C34.3845 35.2289 34.234 35.0784 33.8326 35.0784H29.3757C29.0998 35.0784 28.9576 35.2122 28.9576 35.4882C28.9576 35.7641 29.0998 35.8895 29.3757 35.8895H33.2389L28.9242 42.4119L28.9074 42.3952ZM27.0762 36.1488C27.235 36.2491 27.3605 36.3494 27.4943 36.3494C27.7284 36.3494 27.8873 36.1404 27.8873 35.9146C27.8873 35.7223 27.7869 35.5216 27.5779 35.4045C26.9424 35.0617 26.2901 34.8945 25.6881 34.8945C24.3 34.8945 23.1962 35.739 23.1962 37.194C23.1962 38.348 24.417 38.9667 25.5041 39.5354C26.3737 39.9953 27.1681 40.4134 27.1681 41.0823C27.1681 42.1443 26.3487 42.5708 25.3787 42.5708C24.8937 42.5708 24.3334 42.4119 23.907 42.1527C23.7732 42.0607 23.6394 42.0189 23.5139 42.0189C23.2547 42.0189 23.1377 42.1359 23.1377 42.3952C23.1377 42.5875 23.238 42.7547 23.4387 42.8885C24.0073 43.2565 24.6428 43.4404 25.3452 43.4404C26.8755 43.4404 28.0629 42.6209 28.0629 41.0322C28.0629 39.8782 27.0009 39.3347 26.0058 38.7911C25.0609 38.2811 24.1076 37.8713 24.1076 37.1606C24.1076 36.3745 24.785 35.7725 25.5125 35.7725C26.0894 35.7725 26.725 35.9397 27.0762 36.1571V36.1488ZM18.6138 33.4562C18.6138 33.7656 18.8563 34.0081 19.1657 34.0081C19.4751 34.0081 19.7176 33.7656 19.7176 33.4562C19.7176 33.1468 19.4751 32.9043 19.1657 32.9043C18.8563 32.9043 18.6138 33.1468 18.6138 33.4562ZM16.6069 42.3952C16.5317 42.5122 16.4815 42.6628 16.4815 42.83C16.4815 43.1394 16.6153 43.2983 16.8745 43.2983H21.7914C22.0757 43.2983 22.2262 43.1561 22.2262 42.8802C22.2262 42.6293 22.084 42.4955 21.7914 42.4955H17.5435L21.8583 35.9732C21.9837 35.7808 22.084 35.5801 22.084 35.4296C22.084 35.2289 21.9335 35.0784 21.5321 35.0784H17.0752C16.7993 35.0784 16.6571 35.2122 16.6571 35.4882C16.6571 35.7641 16.7993 35.8895 17.0752 35.8895H20.9384L16.6237 42.4119L16.6069 42.3952ZM12.3674 42.8133C12.3674 43.131 12.5096 43.2899 12.7855 43.2899C13.0614 43.2899 13.1952 43.131 13.1952 42.8133V39.4267L15.4195 35.647C15.4613 35.5718 15.4864 35.4882 15.4864 35.4129C15.4864 35.1788 15.361 35.0617 15.1185 35.0617C14.9513 35.0617 14.8175 35.1537 14.7171 35.3126L12.8189 38.5319L10.879 35.2875C10.787 35.1286 10.6783 35.0533 10.5361 35.0533C10.2936 35.0533 10.1682 35.1871 10.1682 35.438C10.1682 35.5383 10.1933 35.6303 10.2434 35.7307L12.3507 39.4267V42.8133H12.3674ZM0.986713 35.4631C0.944903 35.1871 0.794387 35.0533 0.551889 35.0533C0.334477 35.0533 0.133789 35.2038 0.133789 35.4631C0.133789 35.4965 0.133789 35.53 0.142151 35.5634L1.40481 42.6544C1.48007 43.0558 1.7811 43.315 2.10722 43.315C2.39989 43.315 2.70929 43.1059 2.84308 42.6042L4.59074 36.3578L6.33839 42.7798C6.43874 43.1477 6.73977 43.2899 7.01572 43.2899C7.3502 43.2899 7.64287 43.0641 7.71812 42.7213L9.00587 35.5634C9.00587 35.5634 9.01423 35.4965 9.01423 35.4631C9.01423 35.2122 8.81355 35.0282 8.57941 35.0282C8.31183 35.0282 8.16967 35.1788 8.1195 35.4798L7.01572 42.161L5.18444 35.4714C5.10918 35.1955 4.91685 35.0533 4.60746 35.0533C4.29807 35.0533 4.09738 35.1955 4.02212 35.4714L2.13231 42.1694L0.986713 35.4547V35.4631Z" fill="white"></path></svg>